<?xml version="1.0" encoding="UTF-8"?><svg id="Lager_1" xmlns="http://www.w3.org/2000/svg" viewBox="0 0 406.13 103.62"><path d="M165.24,53.87c-5.86,2.71-10.85,8.4-11,14.86-.14,6.69,4.74,13.89,10.07,14.67,1.47.26,2.96.38,4.45.37,5.45-.17,11.26-2.31,14-7" fill="none" stroke="#000" stroke-linecap="round" stroke-miterlimit="10" stroke-width="8"/><path d="M199.42,62.31c-.88,5.56-1.38,11.18-1.51,16.81-.3,5.63,1.64,12.17,6.88,14.26,1.71.77,3.68.71,5.34-.16,1.02-.69,1.86-1.6,2.46-2.67,5.07-8,6.21-18.09,6.59-27.56" fill="none" stroke="#000" stroke-linecap="round" stroke-linejoin="round" stroke-width="8"/><path d="M255,65.84c-5.2-2.21-11.23-.08-13.89,4.91-.71,1.27-.9,2.77-.55,4.18.51,1.2,1.31,2.25,2.32,3.07l7.91,7.63c1.16,1,2.14,2.19,2.9,3.52,1.54,3.62-.15,7.8-3.77,9.34-.12.05-.24.1-.36.14-3.94,1.05-7.99-1.23-9.16-5.13" fill="none" stroke="#000" stroke-linecap="round" stroke-linejoin="round" stroke-width="8"/><path d="M285.11,71.37c4.09,18.34,5.22,22.9,6.29,28.25" fill="none" stroke="#000" stroke-linecap="round" stroke-linejoin="round" stroke-width="8"/><path d="M272.62,73.8l23.21-4.64" fill="none" stroke="#000" stroke-linecap="round" stroke-linejoin="round" stroke-width="8"/><path d="M324.82,57.52c-18.59,3-18.33,31.82,2.73,30.2,19,.62,17.81-33.38-2.28-30.08" fill="none" stroke="#000" stroke-linecap="round" stroke-linejoin="round" stroke-width="8"/><path d="M365.33,85.13c3.14-11.47,2.83-24.53,5.82-36.49,1.34,9.38,4.44,18.42,9.13,26.65,5.69-16.05,7-18.56,10.6-25.8l11.25,34.3" fill="none" stroke="#000" stroke-linecap="round" stroke-linejoin="round" stroke-width="8"/><path d="M43.59,53.47c-20.72-1.88-25.9,32.53-5.05,35.05,28,3.36,29.09-32.46,5.59-34.69" fill="none" stroke="#000" stroke-linecap="round" stroke-linejoin="round" stroke-width="8.5"/><path d="M74.69,46.64c1.07,13.16,2.21,25.56,3.76,37.82" fill="none" stroke="#000" stroke-linecap="round" stroke-linejoin="round" stroke-width="8.5"/><path d="M75.78,46.42c4.61-1.73,9.49-2.66,14.41-2.74,1,0,6.64.44,8.57,7.77l.34,3.72c-.9,3.83-2.29,4.7-3.89,5.63-5.06,2.94-11.21,3.2-17.02,3.33" fill="none" stroke="#000" stroke-linecap="round" stroke-linejoin="round" stroke-width="8.5"/><path d="M46.25,35c.28-5.77,1.03-11.51,2.26-17.15.43-2-2.26-4.1-3.76-2.18l-12.53,16,3.54.45c-3.01-5.1-5.17-10.67-6.37-16.47-.51-2.47-4.55-1.94-4.42.59.34,6.38.5,12.76.48,19.15l2.85-2.16c-4.67-1.58-9.37-2.97-14.12-4.16-2-.51-4,2.24-2.18,3.76,4.05,3.39,7.8,7.13,11.2,11.17.88.87,2.3.87,3.18,0,.85-.89.85-2.29,0-3.18-3.4-4.05-7.14-7.79-11.2-11.18l-2.18,3.77c4.76,1.19,9.47,2.58,14.12,4.15,1.2.34,2.45-.35,2.79-1.55.06-.2.09-.41.09-.62,0-6.38-.16-12.76-.48-19.15l-4.41.6c1.29,6.18,3.59,12.11,6.81,17.55.67,1.13,2.62,1.63,3.54.46l12.52-16-3.76-2.19c-1.33,6.03-2.15,12.17-2.47,18.34-.14,2.89,4.36,2.88,4.5,0Z" stroke-width="0"/><path d="M27,47.84c4.4-3.68,10-5.6,15.73-5.38,1.24,0,2.25-1.01,2.25-2.25s-1.01-2.25-2.25-2.25c-6.92-.2-13.66,2.19-18.91,6.7-.85.91-.8,2.33.11,3.18.86.81,2.2.81,3.07,0Z" stroke-width="0"/><path d="M47.86,5.81c-.95-.01-1.86.35-2.54,1-.7.7-1.12,1.63-1.18,2.62-.03,1.51.58,2.95,1.66,4,.86.86,1.94,1.47,3.12,1.76,1.34.31,2.74.17,4-.39,2.17-1.06,3.51-3.31,3.42-5.72-.07-1.41-.64-2.74-1.6-3.77-.9-.88-1.98-1.57-3.16-2-1.66-.7-3.53-1.09-5.19-.17-.79.45-1.41,1.15-1.76,2-.41,1-.37,2.12.13,3.08.64,1.07,2.04,1.42,3.11.78,1.05-.65,1.4-2,.81-3.08.27.57.14.36.1.15l.08.6c-.01-.1-.01-.2,0-.3l-.08.6v-.2c0-.06,0-.13,0,.07s-.1.23-.05.13c.04-.06.08-.12.11-.18.1-.2-.39.44-.11.16s-.17.15-.21.15c.06-.03.12-.06.17-.1.3-.19-.47.13-.18.08.11,0,.22,0,.33-.07l-.6.08c.27-.03.54-.03.81,0l-.6-.09c.32.05.64.12.95.22l.39.14.24.1-.31-.13c.52.2,1.01.46,1.46.79.43.3-.33-.31,0,0l.27.24.24.27c.28.31-.31-.47,0,0,.07.12.14.24.2.36.19.32-.18-.55-.07-.17.07.22.13.45.16.68l-.08-.6c.03.3.03.6,0,.9l.08-.59c0,.2-.07.39-.12.59l-.08.24c-.12.39.11-.18.1-.21s-.23.45-.29.54-.1.14-.14.21.41-.47.09-.14c-.05,0-.31.39-.4.38s.53-.37.13-.12l-.21.13-.23.11c.52-.3.36-.14.14-.08-.2.06-.4.1-.6.13l.59-.08c-.33.04-.67.04-1,0l.59.08c-.17-.02-.34-.06-.51-.1l-.3-.09c-.09,0-.4-.16,0,0s.07,0,0,0l-.23-.13-.22-.14c-.21-.14-.24-.3.12.1-.12-.13-.26-.23-.38-.36s-.27-.33,0,0,0,.05,0,0c-.06-.09-.11-.18-.16-.27,0-.07-.2-.4-.05-.07s0-.06,0-.12-.06-.26-.08-.39l.08.59c-.01-.18-.01-.35,0-.53l-.08.6c.01-.09.03-.18.06-.27l-.15.33c.03-.07.07-.13.11-.19-.23.28-.29.36-.17.23.36-.3-.31.21-.11.08s.06,0-.28.12h.21l-.6.08h.22c1.24-.01,2.24-1.01,2.25-2.25-.03-1.23-1.02-2.22-2.25-2.25l-.17-.15Z" stroke-width="0"/><path d="M26.82.72c-.74-.15-1.5-.13-2.23.06-.7.19-1.36.54-1.92,1-.89.72-1.52,1.72-1.78,2.83-.47,2.5.74,5.02,3,6.21,2.23,1.13,4.9.99,7-.36,1.23-.67,2.18-1.76,2.67-3.07.33-1.57-.18-3.2-1.34-4.31-1.76-1.93-4.24-3.04-6.85-3.08-1.24.01-2.24,1.01-2.25,2.25.02,1.23,1.02,2.23,2.25,2.25h.53c.38,0-.16,0-.2,0h.26c.37.07.74.17,1.09.3.51.18-.42-.21.08,0,.16.08.32.16.47.25.15.08.3.17.45.27l.22.15c.3.21,0,.07-.08-.07.22.27.53.48.77.74.06.06.11.13.17.2.21.24-.13-.07-.1-.13s.44.72.22.33,0,0,0,.05c.09.28-.05-.49,0-.2s.09-.49,0-.22.24-.41.08-.19c-.32.42.28-.26,0,0l-.48.44c-.23.2,0-.1.13-.1-.08.04-.15.09-.22.15-.15.1-.31.2-.47.28l-.29.19c-.25.13-.06-.08.16-.06-.14,0-.43.15-.57.19s-.32,0-.46.1c.44-.15.4,0,.2,0h-.8c-.38,0,.16,0,.2,0-.12-.04-.24-.06-.36-.08l-.19-.09c-.2-.06-.14-.16.21.1-.13-.1-.29-.1-.39-.22s-.49-.33-.16-.09-.14-.14-.22-.22l-.15-.18c-.26-.28.15.17.13.17-.09-.12-.18-.26-.24-.4,0-.06-.07-.14-.11-.21.28.44.16.4.11.21s-.05-.14-.07-.22c-.06-.25,0-.41,0,.14.02-.16.02-.32,0-.48.08.35-.09.49,0,.25l.1-.34c.07-.23.13,0-.09.21.06-.08.11-.17.14-.26l.13-.2c.15-.22-.35.4-.09.13l.17-.16c.2-.19.33-.14-.09,0,.14-.06.28-.14.4-.23-.29.25-.43.16-.21.1,0,0,.33-.08.33-.09s-.6,0-.25.05c.18,0,.57,0-.14-.05.59.14,1.21.05,1.74-.23.49-.3.85-.78,1-1.34.16-.59.08-1.21-.22-1.74-.3-.5-.78-.86-1.35-1l-.04.02Z" stroke-width="0"/><path d="M5.56,15.81c-1.99.55-3.6,2-4.36,3.92-.92,2.11-1.82,4.82-.63,7,.64,1.1,1.67,1.91,2.89,2.27,1.26.36,2.61.24,3.78-.35,2.24-1.13,3.65-3.43,3.63-5.94.01-1.53-.64-2.99-1.78-4-1.19-1.05-2.82-1.46-4.37-1.08-1.21.33-1.92,1.58-1.59,2.78.33,1.21,1.58,1.92,2.79,1.59.37-.09-.24,0-.24,0,.08,0,.16,0,.24,0,.36,0-.55-.13-.06,0h.24c.21,0-.26-.11-.26-.11,0,0,.62.39.3.15s.07.09.14.16c.24.25-.11-.12-.13-.16.04.07.08.14.13.21.19.27-.16-.15,0-.15.04.09.07.18.1.28v.21c.08.26,0-.49,0-.08-.02.2-.02.39,0,.59,0,0,.09-.46,0-.22,0,.09,0,.19-.07.29-.06.16-.12.33-.16.5,0-.33.16-.33,0-.13l-.15.3-.26.39c.32-.53.07-.11-.08,0s-.46.4-.17.17,0,0,0,0l-.28.16c-.21.14-.14-.07.18-.06-.08.02-.16.05-.24.08-.1,0-.63.13-.21.06s-.07,0-.18,0c-.39,0,.25,0,.24,0s-.23-.06-.29-.07c-.48-.15.34.21,0,0l-.21-.11c-.18-.09-.13-.23.17.14-.09-.1-.19-.2-.3-.28-.2-.15.23.42.14.18-.04-.09-.09-.17-.15-.25.06.05.15.53.1.21,0-.08,0-.25,0,0s0,0,0-.1v-.31c0-.25,0,.17,0,.2.03-.11.05-.21.06-.32,0-.2.08-.4.13-.6.07-.3.15-.59.25-.88,0-.14.09-.28.13-.41s.35-.72,0-.1c.16-.3.29-.62.47-.92s.19-.29.29-.44.19-.09-.14.18c.06-.06.11-.12.15-.18.11-.12.25-.23.36-.35s-.42.27-.19.14c.08,0,.16-.11.23-.15l.2-.11c.26-.17-.2.06-.23.08.17-.08.36-.14.55-.16,1.2-.33,1.9-1.57,1.57-2.76s-1.57-1.9-2.76-1.58h0l.03.12Z" stroke-width="0"/><path d="M113.22,76.87l16.79-.6c1.66,0,3-1.34,3-3s-1.34-3-3-3l-16.79.6c-1.66,0-3,1.34-3,3s1.34,3,3,3Z" stroke-width="0"/></svg>